<svg width="28" height="28" viewBox="0 0 28 28" fill="none" xmlns="http://www.w3.org/2000/svg">
<g clip-path="url(#clip0_1_838)">
<path d="M27.727 14.3225C27.727 13.3708 27.6498 12.414 27.4852 11.4777H14.28V16.8689H21.842C21.5282 18.6076 20.5199 20.1457 19.0435 21.1231V24.6212H23.555C26.2043 22.1828 27.727 18.5819 27.727 14.3225Z" fill="#4285F4"/>
<path d="M14.28 28.0009C18.0558 28.0009 21.2401 26.7612 23.5602 24.6212L19.0487 21.1231C17.7935 21.9771 16.173 22.4606 14.2851 22.4606C10.6327 22.4606 7.5359 19.9965 6.42475 16.6837H1.76923V20.2898C4.14586 25.0173 8.98657 28.0009 14.28 28.0009Z" fill="#34A853"/>
<path d="M6.41966 16.6837C5.83322 14.9449 5.83322 13.0621 6.41966 11.3234V7.71729H1.76928C-0.216388 11.6732 -0.216388 16.3339 1.76928 20.2898L6.41966 16.6837Z" fill="#FBBC04"/>
<path d="M14.28 5.54127C16.2759 5.51041 18.205 6.26146 19.6505 7.64012L23.6476 3.64305C21.1166 1.26642 17.7575 -0.0402103 14.28 0.000943444C8.98657 0.000943444 4.14586 2.98459 1.76923 7.71728L6.4196 11.3234C7.52561 8.00536 10.6276 5.54127 14.28 5.54127Z" fill="#EA4335"/>
</g>
<defs>
<clipPath id="clip0_1_838">
<rect width="28" height="28" fill="white"/>
</clipPath>
</defs>
</svg>
