<svg width="28" height="34" viewBox="0 0 28 34" fill="none" xmlns="http://www.w3.org/2000/svg">
<path d="M23.3294 31.9007C21.5202 33.6545 19.5448 33.3776 17.6434 32.5468C15.6311 31.6976 13.785 31.6607 11.662 32.5468C9.00359 33.6914 7.60055 33.3591 6.0129 31.9007C-2.99608 22.6148 -1.66689 8.47362 8.56053 7.95671C11.0528 8.08593 12.7881 9.32282 14.2465 9.43359C16.4249 8.99053 18.511 7.71671 20.8371 7.88286C23.6247 8.1044 25.7293 9.21206 27.1139 11.2058C21.354 14.6581 22.7201 22.2456 28 24.3686C26.9477 27.1377 25.5816 29.8884 23.3109 31.9191L23.3294 31.9007ZM14.0619 7.84594C13.785 3.72913 17.1264 0.332299 20.9663 0C21.5017 4.76295 16.6465 8.30747 14.0619 7.84594Z" fill="black"/>
</svg>
