<svg width="56" height="26" viewBox="0 0 56 26" fill="none" xmlns="http://www.w3.org/2000/svg">
<path d="M21.2618 1.05467L13.93 18.5959H9.14681L5.53875 4.59636C5.32 3.73617 5.12991 3.4196 4.46425 3.05586C3.37619 2.4631 1.57937 1.90872 0 1.56385L0.106531 1.05467H7.80741C8.78741 1.05467 9.66984 1.70908 9.89428 2.84219L11.8007 12.9936L16.5073 1.05467H21.2618ZM27.7281 1.05467L23.9868 18.5959H19.4613L23.203 1.05467H27.7283H27.7281ZM40.0035 12.8688C40.0223 8.24006 33.6217 7.98316 33.6634 5.91506C33.6787 5.28631 34.2759 4.61698 35.5832 4.44586C36.2307 4.36184 38.0196 4.29493 40.0459 5.23125L40.8387 1.50923C39.7499 1.11434 38.3488 0.734375 36.6061 0.734375C32.1326 0.734375 28.9859 3.11729 28.9608 6.53218C28.9314 9.05813 31.2084 10.4659 32.9208 11.3072C34.6846 12.1663 35.2761 12.7185 35.268 13.4863C35.2553 14.6633 33.8592 15.1843 32.5614 15.2036C30.2855 15.2398 28.9662 14.5867 27.9138 14.0951L27.0924 17.9404C28.1512 18.427 30.1024 18.8498 32.1234 18.8713C36.8791 18.8713 39.9895 16.5158 40.0035 12.869V12.8688ZM51.816 18.5959H56L52.3447 1.05467H48.4844C47.6138 1.05467 46.8821 1.56144 46.5574 2.34046L39.7674 18.5959H44.5193L45.4619 15.9756H51.2676L51.8162 18.5959H51.816ZM46.765 12.3811L49.1477 5.79374L50.5164 12.3811H46.7648H46.765ZM33.5197 23.4243H31.6809V25.1405H33.7376V25.6565H31.0614V20.8955H33.6322V21.4115H31.6809V22.9158H33.5195V23.4247L33.5197 23.4243ZM34.6876 20.6412H35.3071V25.6563H34.6876V20.6412ZM36.8703 24.0598C36.8843 24.9007 37.4128 25.2467 38.0393 25.2467C38.4834 25.2467 38.7579 25.169 38.9837 25.0703L39.0961 25.5154C38.8778 25.6142 38.4976 25.7342 37.9549 25.7342C36.9058 25.7342 36.279 25.035 36.279 24.0035C36.279 22.9724 36.8843 22.1668 37.8777 22.1668C38.9977 22.1668 39.2864 23.1419 39.2864 23.7705C39.2864 23.8975 39.2792 23.9892 39.265 24.0601H36.8703V24.0598ZM38.6875 23.6149C38.6947 23.2266 38.5256 22.6119 37.8282 22.6119C37.1943 22.6119 36.9265 23.1841 36.8771 23.6149H38.6875ZM42.6587 25.5363C42.4968 25.6142 42.1374 25.7344 41.6797 25.7344C40.6514 25.7344 39.9823 25.035 39.9823 23.9894C39.9823 22.9368 40.7004 22.167 41.8134 22.167C42.1796 22.167 42.5036 22.2585 42.6727 22.3506L42.5322 22.8238C42.3837 22.7462 42.1514 22.6611 41.8134 22.6611C41.0314 22.6611 40.6092 23.2475 40.6092 23.9543C40.6092 24.7452 41.1162 25.2326 41.7924 25.2326C42.1446 25.2326 42.3769 25.148 42.553 25.0703L42.6587 25.5363ZM44.3973 21.4181V22.2374H45.2845V22.7104H44.3973V24.5543C44.3973 24.9786 44.5172 25.2184 44.8621 25.2184C45.031 25.2184 45.1299 25.2046 45.2215 25.1758L45.2498 25.6497C45.1299 25.6918 44.9398 25.7342 44.7002 25.7342C44.4113 25.7342 44.1787 25.6352 44.0311 25.4731C43.862 25.282 43.7916 24.9786 43.7916 24.5758V22.7104H43.2631V22.2374H43.7916V21.6019L44.3975 21.4183L44.3973 21.4181ZM46.1501 23.3043C46.1501 22.9015 46.1427 22.5555 46.1219 22.2374H46.6644L46.6928 22.9153H46.7134C46.8687 22.4566 47.2487 22.1668 47.6641 22.1668C47.7278 22.1668 47.7772 22.174 47.8336 22.1808V22.7675C47.7702 22.753 47.707 22.753 47.6219 22.753C47.1857 22.753 46.8753 23.0779 46.7911 23.5445C46.7765 23.6403 46.7694 23.7372 46.7698 23.8341V25.6567H46.1501V23.3043ZM51.6432 23.9186C51.6432 25.1831 50.7625 25.7342 49.9457 25.7342C49.0298 25.7342 48.3116 25.0558 48.3116 23.9754C48.3116 22.8379 49.0652 22.167 50.0021 22.167C50.981 22.167 51.6432 22.88 51.6432 23.9188V23.9186ZM48.9453 23.9541C48.9453 24.7028 49.3679 25.2682 49.9737 25.2682C50.5656 25.2682 51.009 24.7096 51.009 23.9398C51.009 23.3607 50.7202 22.6328 49.9877 22.6328C49.2625 22.6328 48.9453 23.3113 48.9453 23.9541ZM52.593 23.1628C52.593 22.8028 52.5855 22.52 52.5645 22.2377H53.114L53.1493 22.8028H53.1632C53.3323 22.4847 53.7267 22.167 54.2903 22.167C54.7619 22.167 55.4947 22.4496 55.4947 23.6217V25.6565H54.875V23.6856C54.875 23.1349 54.6707 22.6753 54.0862 22.6753C53.6845 22.6753 53.3673 22.9651 53.2551 23.3111C53.2267 23.389 53.2127 23.4947 53.2127 23.6009V25.6565H52.593V23.1628Z" fill="#1A1F71"/>
</svg>
